<svg width="200" height="48" viewBox="0 0 200 48" fill="none" xmlns="http://www.w3.org/2000/svg">
<g clip-path="url(#clip0_6171_16103)">
<path d="M180.073 34.959C183.711 34.1333 184.857 30.3642 184.016 27.2051C185.843 26.0745 186.739 24.0822 186.775 22.054C189.194 21.7129 191.631 21.3898 194.05 21.0309C194.068 21.0309 194.104 21.0309 194.122 21.0309C194.642 20.9592 195.162 20.8873 195.699 20.8156C201.684 19.9001 200.932 9.63357 195.628 8.57461C197.025 4.78747 195.323 -0.292001 190.431 0.0131237C129.217 3.85411 68.0032 7.69508 6.78952 11.554C0.786424 11.9309 -0.503792 19.595 3.09807 22.7539C1.3061 26.4333 4.11948 31.9256 8.45605 32.0692C17.6668 32.3742 26.8775 32.518 36.0883 32.5538C35.8374 32.8769 35.6044 33.2359 35.4073 33.5948C34.0096 33.9359 32.6119 34.2769 31.1962 34.618C24.4405 36.2513 26.3578 46.5538 32.7732 46.9486C82.2315 49.946 131.618 45.8716 180.091 35.0128L180.073 34.959Z" fill="#1BB6F9"/>
</g>
<defs>
<clipPath id="clip0_6171_16103">
<rect width="200" height="47.9042" fill="white"/>
</clipPath>
</defs>
</svg>
