<svg width="200" height="70" viewBox="0 0 200 70" fill="none" xmlns="http://www.w3.org/2000/svg">
<g clip-path="url(#clip0_6171_16105)">
<path d="M13.5415 4.59312C7.9288 4.70602 5.10008 16.5526 7.08097 22.8727C6.99242 23.3456 6.92166 23.8197 6.85099 24.2938C-0.321973 25.6453 -2.57064 46.2099 4.92662 46.3156C5.71676 46.3352 6.50332 46.3864 7.31486 46.3754C1.93819 50.6842 0.923416 67.4356 7.55902 67.517C65.778 68.3117 123.979 69.1052 182.198 69.8992C189.392 69.9852 191.61 52.4504 186.076 48.4518C188.239 48.5927 190.384 48.7326 192.544 48.9052C200.149 49.4966 202.474 27.9159 195.004 26.7588C186.951 25.5 178.908 24.3058 170.834 23.237C173.433 23.183 176.031 23.1289 178.649 23.0761C186.267 22.9024 188.781 0.759583 181.109 0.929748C125.243 2.13953 69.3903 3.38218 13.5237 4.59196L13.5415 4.59312Z" fill="#1BB6F9"/>
</g>
<defs>
<clipPath id="clip0_6171_16105">
<rect width="200" height="69" fill="white" transform="translate(0 0.904297)"/>
</clipPath>
</defs>
</svg>
