<svg width="200" height="43" viewBox="0 0 200 43" fill="none" xmlns="http://www.w3.org/2000/svg">
<g clip-path="url(#clip0_6171_16076)">
<path d="M193.221 20.1928C193.776 21.4384 194.084 22.1979 194.441 22.927C195.84 25.7675 197.199 28.6839 196.048 32.4358C194.838 36.3852 192.397 36.6435 189.976 36.7498C184.917 36.9625 179.847 36.9017 174.798 37.3422C158.925 38.7093 143.061 40.927 127.179 41.5802C107.258 42.4004 87.3174 42.2182 67.3773 42.0663C53.4388 41.9599 39.4903 41.1853 25.5518 40.6384C21.5335 40.4865 17.5058 40.1675 13.4881 39.7422C10.7302 39.4384 8.71632 37.2814 7.27754 33.5599C6.63268 31.9042 5.52188 30.5675 4.48033 29.3827C1.71246 26.2536 -0.579497 23.0029 0.581164 16.8814C0.898608 15.2257 0.392794 13.1599 0.164538 11.3067C-0.549588 5.48901 1.06758 1.78259 4.88698 1.66111C15.1053 1.31171 25.3236 1.28133 35.5418 1.08386C51.236 0.780081 66.9407 -0.040127 82.6349 0.263646C97.2875 0.537055 111.931 1.91934 126.583 2.90666C146.405 4.2434 166.226 4.92695 186.038 2.48142C186.961 2.35986 187.873 1.98009 188.796 1.85861C190.125 1.67631 191.484 1.40291 192.804 1.5852C196.633 2.08646 199.877 7.251 199.996 12.7953C200.086 17.2611 198.578 19.008 193.221 20.2232L193.221 20.1928Z" fill="#00CEB3"/>
</g>
<defs>
<clipPath id="clip0_6171_16076">
<rect width="200" height="42" fill="white" transform="translate(200 42.1973) rotate(-180)"/>
</clipPath>
</defs>
</svg>
