<svg width="200" height="42" viewBox="0 0 200 42" fill="none" xmlns="http://www.w3.org/2000/svg">
<g clip-path="url(#clip0_6171_16074)">
<path d="M10.7438 0.964713C5.13275 0.820566 3.23847 6.8101 5.72239 10.1312C5.67116 10.3712 5.63786 10.6124 5.60463 10.8537C-1.47054 11.2902 -2.09366 21.7834 5.42162 22.1078C6.21432 22.1464 7.00596 22.201 7.8177 22.2246C2.77526 24.2465 3.08567 32.8235 9.73625 33.1044C68.0933 35.6103 126.432 38.1148 184.789 40.6206C191.999 40.9239 192.831 31.9875 186.973 29.732C189.15 29.8824 191.31 30.0316 193.486 30.1982C201.148 30.7763 201.767 19.7634 194.196 18.8993C186.032 17.9619 185.697 17.2569 177.527 16.4165C174.911 16.3494 180.126 16.4823 177.527 16.4165C185.142 16.6016 185.906 5.30645 178.237 5.11757C122.394 3.72707 66.5684 2.35397 10.7258 0.963469L10.7438 0.964713Z" fill="#00CEB3"/>
</g>
<defs>
<clipPath id="clip0_6171_16074">
<rect width="200" height="40.3785" fill="white" transform="translate(0 0.818359)"/>
</clipPath>
</defs>
</svg>
