<svg width="200" height="51" viewBox="0 0 200 51" fill="none" xmlns="http://www.w3.org/2000/svg">
<g clip-path="url(#clip0_6171_15976)">
<path d="M6.7795 26.8176C6.22395 25.3225 5.91641 24.4108 5.55926 23.5357C4.16045 20.1262 2.80133 16.6255 3.95212 12.1221C5.16245 7.38156 7.60293 7.07155 10.0236 6.94393C15.0831 6.68867 20.1526 6.76163 25.2022 6.23288C41.0752 4.59194 56.9384 1.92996 72.8212 1.14595C92.7421 0.161387 112.683 0.380166 132.623 0.562493C146.561 0.690121 160.51 1.61999 174.449 2.27636C178.466 2.45869 182.494 2.84163 186.512 3.35214C189.27 3.71679 191.283 6.30579 192.722 10.7728C193.367 12.7601 194.479 14.3646 195.52 15.7868C198.288 19.5427 200.579 23.4445 199.419 30.7923C199.102 32.7797 199.607 35.2592 199.836 37.4836C200.55 44.4668 198.933 48.9156 195.113 49.0615C184.895 49.4808 174.677 49.5173 164.459 49.7543C148.764 50.1189 133.059 51.1035 117.365 50.7388C102.712 50.4106 88.0694 48.7515 73.4165 47.5663C53.595 45.9619 33.7736 45.1413 13.9621 48.0768C13.0394 48.2226 12.1268 48.6786 11.2041 48.8244C9.87479 49.0432 8.51562 49.3714 7.19617 49.1525C3.36679 48.5509 0.122744 42.3518 0.00369556 35.6968C-0.0855901 30.3364 1.42235 28.2397 6.7795 26.7811V26.8176Z" fill="#FC787D"/>
</g>
<defs>
<clipPath id="clip0_6171_15976">
<rect width="200" height="50.4132" fill="white" transform="translate(0 0.405273)"/>
</clipPath>
</defs>
</svg>
