<svg width="200" height="42" viewBox="0 0 200 42" fill="none" xmlns="http://www.w3.org/2000/svg">
<g clip-path="url(#clip0_6171_15994)">
<path d="M10.7439 0.964713C5.13281 0.820566 3.23853 6.8101 5.72245 10.1312C5.67122 10.3712 5.63792 10.6124 5.60469 10.8537C-1.47048 11.2902 -2.0936 21.7834 5.42168 22.1078C6.21438 22.1464 7.00602 22.201 7.81776 22.2246C2.77532 24.2465 3.08573 32.8235 9.73631 33.1044C68.0934 35.6103 126.432 38.1148 184.789 40.6206C191.999 40.9239 192.831 31.9875 186.973 29.732C189.15 29.8824 191.31 30.0316 193.486 30.1982C201.148 30.7763 201.767 19.7634 194.196 18.8993C186.032 17.9619 185.697 17.2569 177.527 16.4165C174.911 16.3494 180.126 16.4823 177.527 16.4165C185.142 16.6016 185.906 5.30645 178.237 5.11757C122.394 3.72707 66.5685 2.35397 10.7258 0.963469L10.7439 0.964713Z" fill="#FC787D"/>
</g>
<defs>
<clipPath id="clip0_6171_15994">
<rect width="200" height="40.3785" fill="white" transform="translate(0 0.818359)"/>
</clipPath>
</defs>
</svg>
