<svg width="190" height="81" viewBox="0 0 190 81" fill="none" xmlns="http://www.w3.org/2000/svg">
<path d="M74.7208 81C60.6464 81 46.7878 80.0046 33.5336 76.734C28.5687 75.511 23.6471 73.9468 19.2866 72.0129C-2.559 62.3432 -6.40145 46.1323 10.6087 32.9361C22.1791 23.9774 36.0809 16.5545 51.7959 10.9233C84.0893 -0.651813 117.98 -3.38207 153.166 4.43899C165.73 7.22613 176.393 11.9472 183.474 19.5692C191.893 28.6416 192.454 38.1122 183.474 46.8718C177.948 52.2185 170.91 57.1956 163.182 61.2056C137.365 74.601 107.532 80.744 74.7639 81H74.7208ZM78.0451 77.1606C82.2329 76.9046 89.1838 76.734 95.9619 76.023C124.802 72.9799 150.662 65.6423 171.213 51.6497C176.307 48.18 180.84 43.6296 182.869 39.0507C185.287 33.6186 188.395 26.9636 176.955 23.2948C176.523 23.1526 176.264 22.7829 175.962 22.527C165.73 14.2224 152.13 9.67198 136.329 8.59125C98.6387 6.0032 63.539 11.4922 32.1521 25.6269C24.381 29.1535 17.4301 33.9599 11.8608 39.0223C2.62176 47.4406 4.21913 57.0818 15.401 64.4762C20.0205 67.5478 25.8489 70.1358 31.8067 71.956C45.4926 76.1367 60.3441 76.9899 77.9588 77.189L78.0451 77.1606ZM123.852 3.2445C100.279 1.53809 78.002 4.49587 56.9335 11.549C78.6064 6.572 100.797 3.35826 123.852 3.2445Z" fill="#FBB130"/>
</svg>
