<svg width="1090" height="424" viewBox="0 0 1090 424" fill="none" xmlns="http://www.w3.org/2000/svg">
<path d="M869.727 308.148C867.208 309.66 866.049 310.869 864.79 310.97C863.228 311.071 860.911 310.819 860.156 309.76C859.4 308.752 859.551 305.779 860.407 305.074C865.949 300.488 871.641 295.952 877.737 292.072C880.759 290.106 883.177 292.273 883.58 295.7C884.185 300.891 884.537 306.081 884.84 311.323C884.991 314.296 885.444 318.227 881.213 318.227C879.097 318.227 876.981 315.556 874.412 313.742C873.757 314.951 872.8 317.32 871.339 319.335C870.583 320.394 868.971 320.898 867.762 321.603C867.46 320.192 866.654 318.68 866.906 317.37C867.41 314.699 868.518 312.078 869.777 308.148H869.727Z" fill="#D7DADD"/>
<path d="M681.474 346.902C686.159 350.127 690.843 353.352 695.528 356.628C698.148 358.493 700.919 360.206 703.135 362.524C704.042 363.431 704.294 366.153 703.588 367.161C702.833 368.169 699.81 368.925 699.105 368.32C692.657 362.625 686.461 356.578 680.265 350.581C679.862 350.228 680.113 349.17 680.063 348.414C680.516 347.91 681.02 347.406 681.474 346.902Z" fill="#D7DADD"/>
<path d="M841.517 357.686C844.287 353.654 846.756 349.925 849.375 346.347C851.743 343.122 854.06 339.846 856.831 336.923C857.788 335.915 860.357 335.361 861.415 335.966C862.473 336.571 863.38 339.745 862.826 340.3C856.831 346.599 850.534 352.647 844.237 358.744C844.136 358.845 843.532 358.492 841.517 357.636V357.686Z" fill="#D7DADD"/>
<path d="M804.54 381.423C803.482 380.869 801.669 380.365 801.669 379.861C801.669 378.702 802.324 376.938 803.18 376.535C809.981 373.561 816.832 370.689 823.834 368.219C824.942 367.816 826.806 369.429 828.318 370.084C827.562 371.697 827.159 374.368 826 374.771C818.998 377.24 811.845 379.205 804.54 381.372V381.423Z" fill="#D7DADD"/>
<path d="M641.274 284.009C647.269 290.207 650.845 297.363 653.817 304.872C654.17 305.729 653.112 307.694 652.155 308.249C651.198 308.853 649.334 308.803 648.276 308.249C645.203 306.686 639.712 288.443 641.274 284.009Z" fill="#D7DADD"/>
<path d="M673.564 337.276C671.65 337.831 670.088 338.687 668.527 338.687C667.116 338.687 665 338.234 664.446 337.276C661.575 332.237 659.006 327.046 656.638 321.805C656.235 320.847 656.89 319.235 657.494 318.126C657.696 317.773 659.761 317.773 660.064 318.227C664.043 323.619 667.872 329.163 673.514 337.276H673.564Z" fill="#D7DADD"/>
<path d="M756.835 378.953C764.795 378.499 772.704 377.945 780.663 377.744C781.368 377.744 782.728 379.759 782.728 380.818C782.728 381.926 781.368 383.993 780.663 383.942C772.754 383.589 764.593 385.051 756.936 382.178C756.936 381.12 756.886 380.062 756.835 378.953Z" fill="#D7DADD"/>
<path d="M720.665 370.94C728.121 370.184 735.224 372.351 742.176 374.871C742.881 375.123 743.687 377.139 743.385 377.844C742.931 378.852 741.269 380.314 740.513 380.112C733.612 378.247 726.761 376.08 719.91 373.964C720.162 372.956 720.413 371.948 720.665 370.94Z" fill="#D7DADD"/>
<path d="M87.7222 204.873C87.3607 204.912 87.0025 204.978 86.6505 205.07C83.6068 205.803 80.5634 206.538 77.5203 207.274C70.9389 208.866 64.1322 210.509 57.4347 212.111C55.9454 212.467 54.4711 212.766 52.9104 213.082C52.2898 213.208 51.6651 213.335 51.0363 213.465C51.0074 213.408 50.9815 213.358 50.9583 213.313C50.9062 213.221 50.8621 213.125 50.8266 213.026C49.1397 206.978 47.4545 200.931 45.7705 194.883L42.9296 184.684C42.882 184.512 42.8401 184.337 42.7988 184.161C42.7067 183.682 42.5527 183.215 42.3415 182.775C41.0557 180.359 40.4353 179.833 37.7105 180.605C34.4426 181.503 31.3042 182.821 28.3724 184.527C20.1764 189.365 14.7497 195.538 11.7818 203.399C9.10973 210.473 8.14691 218.217 8.91781 226.413C9.87504 236.589 14.6618 244.665 22.7597 249.768C34.4978 257.163 46.7387 259.413 59.2962 256.51C63.9328 255.408 68.4165 253.738 72.6473 251.538C77.7669 248.918 81.4916 245.655 84.0337 241.558C88.9285 233.67 91.4234 224.755 91.6596 214.305C91.729 211.238 91.3388 208.795 90.4314 206.619C89.9222 205.397 89.3154 204.72 87.7222 204.873ZM26.5237 245.239C20.1963 241.387 16.2437 235.277 15.0932 227.569C13.7911 218.845 14.7705 210.611 18.004 203.094C19.8368 198.833 22.7934 195.054 27.041 191.545C30.347 188.855 33.9911 186.616 37.8802 184.886C38.1096 184.791 38.3479 184.719 38.5909 184.67L38.711 184.643C38.7148 184.652 38.7184 184.661 38.7219 184.67C38.7921 184.837 38.8505 185.009 38.8975 185.184C41.1172 194.561 43.3323 203.939 45.5428 213.318C45.6428 213.751 45.7229 214.199 45.7986 214.634C45.8513 214.937 45.904 215.24 45.9651 215.543C46.2258 216.836 46.7204 217.686 47.4773 218.142C48.2264 218.593 49.1826 218.628 50.4107 218.253C50.6489 218.181 50.8949 218.128 51.1544 218.074L51.3935 218.023C52.9105 217.69 54.4283 217.36 55.9472 217.033C59.238 216.321 62.6453 215.59 65.9763 214.808C70.13 213.842 74.3451 212.822 78.4199 211.835C80.5786 211.312 82.7381 210.791 84.8984 210.271C84.9823 210.267 85.0665 210.273 85.1496 210.286L85.2519 210.298C85.2849 210.945 85.3343 211.598 85.3817 212.23C85.5447 213.829 85.5811 215.438 85.4906 217.042C84.9037 223.962 83.4035 229.928 80.9036 235.283C78.8357 239.712 75.8618 243.068 72.0639 245.257C56.5522 254.2 41.2296 254.194 26.5237 245.239Z" fill="#D7DADD"/>
<path d="M93.0859 191.555C91.1453 188.824 89.138 185.999 86.7384 183.525C76.7143 173.19 64.7534 167.896 51.1882 167.791C49.9498 167.781 48.7142 167.893 47.4989 168.127C46.5923 168.299 45.9728 168.657 45.6149 169.21C45.2478 169.777 45.1745 170.522 45.3908 171.488C45.6494 172.641 45.9935 173.884 46.4737 175.399L46.698 176.106C48.72 182.485 50.8112 189.08 51.9482 195.802C51.9498 195.809 51.9514 195.816 51.953 195.823L52.2682 197.187C52.5047 198.21 52.7413 199.233 52.978 200.257C53.1164 200.856 53.2465 201.456 53.377 202.057C53.6646 203.378 53.9633 204.743 54.3342 206.07C54.9574 208.291 55.6508 208.72 57.847 208.212L57.8991 208.2C58.6352 208.027 59.3598 207.785 60.0599 207.551C60.5516 207.386 61.0595 207.217 61.562 207.075C65.023 206.095 68.4852 205.119 71.9488 204.146C76.1209 202.972 80.2926 201.795 84.4636 200.615C87.6112 199.723 90.4487 198.91 93.3023 197.999C94.3174 197.674 95.0136 197.07 95.2623 196.298C95.511 195.525 95.302 194.632 94.6756 193.77C94.1409 193.04 93.6132 192.297 93.0859 191.555ZM89.0398 193.838L88.9244 193.886C88.5982 194.029 88.2638 194.151 87.9228 194.252C86.2738 194.703 84.6218 195.143 82.9703 195.584C80.1385 196.34 77.21 197.123 74.3408 197.938C70.7553 198.958 67.1236 200.039 63.6114 201.084C61.9115 201.59 60.211 202.094 58.5101 202.597C58.3149 202.654 58.1098 202.699 57.8259 202.762L57.5988 202.811C55.6606 191.421 53.1742 181.384 50.0016 172.157C64.7651 170.996 80.3543 179.651 89.0398 193.838Z" fill="#FBB130"/>
<path d="M328.727 125.862C326.208 124.35 325.049 123.141 323.79 123.04C322.228 122.939 319.911 123.191 319.156 124.249C318.4 125.257 318.551 128.231 319.407 128.936C324.949 133.522 330.641 138.058 336.737 141.938C339.759 143.904 342.177 141.737 342.58 138.31C343.185 133.119 343.537 127.928 343.84 122.687C343.991 119.714 344.444 115.783 340.212 115.783C338.097 115.783 335.981 118.454 333.412 120.268C332.757 119.059 331.8 116.69 330.339 114.674C329.583 113.616 327.971 113.112 326.762 112.407C326.46 113.818 325.654 115.33 325.906 116.64C326.41 119.311 327.518 121.931 328.777 125.862H328.727Z" fill="#D7DADD"/>
<path d="M140.474 87.1078C145.159 83.8826 149.843 80.6573 154.528 77.3816C157.148 75.517 159.919 73.8036 162.135 71.4854C163.042 70.5783 163.294 67.8569 162.588 66.849C161.833 65.8411 158.81 65.0852 158.105 65.69C151.657 71.3846 145.461 77.432 139.265 83.429C138.862 83.7818 139.113 84.8401 139.063 85.596C139.516 86.0999 140.02 86.6039 140.474 87.1078Z" fill="#D7DADD"/>
<path d="M300.517 76.3237C303.287 80.3553 305.756 84.0846 308.375 87.6626C310.743 90.8879 313.06 94.1636 315.831 97.0865C316.788 98.0944 319.357 98.6487 320.415 98.044C321.473 97.4393 322.38 94.2644 321.826 93.71C315.831 87.4107 309.534 81.3632 303.237 75.2655C303.136 75.1647 302.532 75.5174 300.517 76.3741V76.3237Z" fill="#D7DADD"/>
<path d="M263.54 52.5869C262.482 53.1412 260.669 53.6452 260.669 54.1491C260.669 55.3082 261.324 57.072 262.18 57.4752C268.981 60.4485 275.832 63.321 282.834 65.7904C283.942 66.1935 285.806 64.5809 287.318 63.9258C286.562 62.3131 286.159 59.6422 285 59.239C277.998 56.7697 270.845 54.8043 263.54 52.6373V52.5869Z" fill="#D7DADD"/>
<path d="M100.274 150.001C106.269 143.803 109.845 136.646 112.817 129.138C113.17 128.281 112.112 126.315 111.155 125.761C110.198 125.156 108.334 125.207 107.276 125.761C104.203 127.323 98.7122 145.566 100.274 150.001Z" fill="#D7DADD"/>
<path d="M132.564 96.7335C130.65 96.1792 129.088 95.3225 127.527 95.3225C126.116 95.3225 124 95.776 123.446 96.7335C120.575 101.773 118.006 106.964 115.638 112.205C115.235 113.162 115.89 114.775 116.494 115.884C116.696 116.236 118.761 116.236 119.064 115.783C123.043 110.391 126.872 104.847 132.514 96.7335H132.564Z" fill="#D7DADD"/>
<path d="M215.835 55.0568C223.795 55.5103 231.704 56.0647 239.663 56.2663C240.368 56.2663 241.728 54.2505 241.728 53.1922C241.728 52.0835 240.368 50.0173 239.663 50.0677C231.754 50.4204 223.593 48.959 215.936 51.8315C215.936 52.8898 215.886 53.9481 215.835 55.0568Z" fill="#D7DADD"/>
<path d="M179.665 63.0696C187.121 63.8255 194.224 61.6585 201.176 59.1388C201.881 58.8868 202.687 56.871 202.385 56.1655C201.931 55.1576 200.269 53.6961 199.513 53.8977C192.612 55.7623 185.761 57.9293 178.91 60.0459C179.162 61.0538 179.413 62.0617 179.665 63.0696Z" fill="#D7DADD"/>
<path d="M888.315 60.3994C888.312 61.2178 889.71 63.5321 891.852 66.1691C893.831 68.605 895.313 70.8872 895.172 71.2614C894.789 72.3884 903.302 82.0915 908.093 86.0263C910.527 88.0181 912.736 90.0071 913.072 90.5127C913.39 90.996 916.518 94.9836 919.999 99.3148L926.344 107.217L915.788 106.185C884.159 103.093 884.343 103.092 884.051 106.111C883.778 108.743 884.756 108.988 899.725 109.7C906.994 110.064 921.204 111.986 921.767 112.679C921.858 112.79 921.296 113.469 920.506 114.185C903.689 129.329 899.008 133.613 898.01 134.758C897.381 135.491 895.201 137.967 893.163 140.253C889.274 144.598 888.891 146.319 891.686 146.608C892.86 146.73 894.413 145.765 898.753 142.203C901.815 139.716 905.558 136.379 907.066 134.857C908.575 133.335 911.468 130.503 913.396 128.676C915.348 126.832 917.651 124.553 918.454 123.715C921.474 120.446 928.365 114.181 928.619 114.494C928.765 114.673 928.812 116.192 928.739 117.883C928.666 119.574 928.748 123.328 928.918 126.232C929.088 129.135 929.252 134.269 929.309 137.673C929.343 141.094 929.513 145.778 929.701 148.111C929.867 150.461 930.108 154.457 930.208 157.046C930.478 164.319 930.696 165.181 932.397 165.357C933.653 165.487 933.848 165.18 934.157 162.592C934.365 160.976 934.26 157.056 933.948 153.749C933.415 148.024 933.181 141.983 933.093 131.372C933.068 128.647 933.037 125.001 933.015 123.238C933.007 121.539 932.979 119.039 932.979 117.852C932.961 116.642 933.228 115.647 933.552 115.68C934.24 115.751 945.633 128.864 957.126 142.785L965.947 153.462L967.198 152.445C967.913 151.864 968.253 150.958 967.956 150.272C966.162 146.054 958.13 135.071 948.512 123.595C942.501 116.423 937.61 110.492 937.654 110.456C937.699 110.42 939.692 111.138 942.055 112.038C944.413 112.978 949.502 114.037 953.332 114.413C957.161 114.79 963.579 115.659 967.523 116.313C976.838 117.872 982.387 117.259 980.444 114.868C979.682 113.93 964.977 108.886 963.86 109.2C963.523 109.288 963.108 109.143 962.854 108.83C961.91 107.668 955.141 106.23 947.015 105.449L938.605 104.64L941.715 101.482C943.411 99.7342 950.17 93.762 956.747 88.1599C971.202 75.8624 974.85 72.4539 976.033 70.1205C977.035 68.157 976.743 67.0216 975.472 67.8314C975.056 68.0953 974.089 68.732 973.32 69.2458C972.528 69.7778 971.275 70.0164 970.536 69.8376C968.806 69.3513 960.473 75.8973 949.302 86.5291C942.877 92.6382 935.174 99.2289 934.589 99.1478C933.842 99.0499 933.2 85.8845 933.656 80.0986C934.847 65.4447 934.768 58.4981 933.449 60.7562C932.952 61.6052 932.622 61.4278 931.856 59.9362C930.196 56.7965 928.707 59.1188 928.536 65.1184C928.449 67.9338 928.31 71.0509 928.244 71.8833C927.956 75.4556 928.293 82.081 929.251 91.2062C929.817 96.6068 930.174 101.065 930.063 101.155C929.951 101.246 926.481 97.2026 922.36 92.1298C918.24 87.0569 914.566 82.8081 914.21 82.6893C913.836 82.5482 910.804 79.4097 907.467 75.6665C898.349 65.4912 890.503 58.2518 889.139 58.7656C888.691 58.9443 888.332 59.6439 888.333 60.4217L888.315 60.3994Z" fill="#FBB130"/>
<path d="M929.872 37.9942C927.761 40.7843 927.88 41.6152 930.673 43.501C933.005 45.0934 933.211 45.0739 936.031 43.3397C939.576 41.1281 939.758 40.758 938.407 38.1825C937.554 36.5387 936.859 36.1392 934.613 35.8861C933.115 35.7308 931.748 35.6916 931.609 35.841C931.453 35.968 930.673 36.9721 929.89 38.0166L929.872 37.9942Z" fill="#FBB130"/>
<path d="M954.997 20.8873C953.865 22.9191 957.376 24.5927 973.159 29.5024C975.381 30.1828 977.406 30.9861 977.605 31.232C978.096 31.8353 974.174 34.1308 970.352 35.4542C967.272 36.5472 962.472 40.0002 960.75 42.4007C959.459 44.1909 960.526 46.1435 962.578 45.701C964.109 45.3479 971.42 40.5587 977.246 36.0863C979.535 34.3382 979.831 34.246 979.764 35.4876C979.725 36.2613 980.227 39.7108 980.895 43.1367C981.564 46.5625 982.098 50.0973 982.069 50.9743C982.037 52.6698 983.31 53.4157 984.494 52.4536C985.277 51.8183 985.375 46.3229 984.613 45.3843C984.377 45.0938 984.293 44.1231 984.408 43.214C984.522 42.3049 984.345 40.2602 984.001 38.6485C983.656 37.0369 983.38 35.5551 983.356 35.3889C983.339 34.9574 989.868 36.1454 993.14 37.1597C994.745 37.6739 996.668 38.0777 997.427 38.0541C999.496 38.0432 1001.01 36.6245 1000.12 35.5295C999.162 34.3451 992.286 31.1767 990.631 31.1486C989.934 31.1583 989.032 30.7783 988.705 30.376C988.379 29.9738 987.842 29.8159 987.552 30.0518C987.261 30.2878 986.834 30.264 986.58 29.9511C986.326 29.6383 987.798 28.0716 990.077 26.2201C992.781 24.0236 994.173 22.4485 994.546 21.2182C995.856 16.667 990.82 17.271 986.172 22.2337C984.606 23.9135 983.029 25.3057 982.674 25.3713C982.342 25.4187 981.63 23.9942 981.136 22.2442C980.203 18.9957 977.149 12.1297 975.356 9.2833C974.6 8.07936 974.177 8.01507 973.127 8.86822C971.518 10.1752 971.667 10.907 974.627 17.1081C976.952 21.9336 978.471 26.6346 977.867 27.1247C977.688 27.2699 975.113 26.2459 972.086 24.8475C964.997 21.5548 963.951 21.1804 958.948 20.089C956.025 19.4588 955.796 19.4964 955.011 20.9501L954.997 20.8873Z" fill="#FBB130"/>
<path d="M1012.56 64.4886C1012.43 65.7036 1015.51 69.134 1017.13 69.5672C1019.12 70.1009 1023.38 67.6771 1023.18 66.1004C1022.97 64.3798 1019.98 60.9801 1018.63 60.9632C1017.06 60.9434 1012.64 63.4943 1012.54 64.4663L1012.56 64.4886Z" fill="#FBB130"/>
<path d="M1037.47 85.9407C1037.51 87.8065 1039.24 92.96 1040.18 93.9783C1040.31 94.1347 1040.4 94.84 1040.38 95.636C1040.35 97.2909 1041.61 102.129 1043.64 108.049C1044.47 110.489 1044.98 112.63 1044.81 112.775C1044.36 113.138 1038.35 110.449 1033.29 107.591C1025.94 103.473 1020.12 102.154 1018.39 104.226C1016.59 106.353 1017.61 107.42 1023.46 109.643C1026.51 110.798 1029.71 112.092 1030.64 112.597C1031.57 113.062 1035.18 114.767 1038.67 116.315C1042.13 117.881 1045.23 119.328 1045.54 119.524C1045.85 119.719 1045.07 120.273 1043.87 120.804C1042.65 121.312 1039.68 123.133 1037.32 124.792C1034.96 126.45 1032.29 128.242 1031.47 128.729C1024.77 132.682 1023.13 133.904 1022.54 135.315C1022.16 136.218 1022.02 137.104 1022.2 137.328C1023.68 139.097 1027.49 137.262 1037.23 130.166C1043.08 125.9 1047.08 123.428 1047.44 123.875C1047.53 123.987 1047.72 124.723 1047.87 125.455C1048.02 126.227 1048.56 128.31 1049.04 130.141C1049.55 131.953 1050.53 135.719 1051.25 138.515C1053.93 148.985 1055.17 151.426 1057.01 149.857C1058.83 148.306 1058.5 144.342 1055.93 137.198C1053.37 130.077 1051.53 123.562 1051.97 123.199C1052.38 122.872 1060.96 125.992 1061.5 126.662C1061.79 127.02 1062.47 127.397 1062.93 127.465C1063.41 127.556 1065.89 128.774 1068.38 130.199C1073.95 133.355 1076.23 133.796 1077.43 131.975C1078.08 130.999 1078 130.397 1077.03 129.703C1074.23 127.674 1063.24 121.685 1062.07 121.523C1061.33 121.425 1060.56 121.08 1060.24 120.678C1059.91 120.275 1058.89 119.883 1057.84 119.693C1055.11 119.246 1052.76 118.224 1052.99 117.553C1053.4 116.326 1056.7 115.092 1058.03 115.681C1058.82 116.007 1059.85 115.91 1060.39 115.474C1060.92 115.038 1064.01 114.049 1067.35 113.269C1073.92 111.718 1076.96 110.027 1076.97 107.941C1077.01 104.424 1070.96 104.145 1064.82 107.419C1062.59 108.601 1058.96 110.251 1056.87 111.058C1054.77 111.842 1052.59 113.091 1052.09 113.796C1051.47 114.632 1050.94 114.802 1050.52 114.288C1050.03 113.685 1048.33 106.611 1047.17 100.392C1047.03 99.5795 1046.48 97.3937 1045.98 95.5404C1045.47 93.6871 1044.56 90.2766 1043.93 87.8577C1042.65 83.038 1042.18 82.2321 1040.49 82.0783C1038.57 81.8993 1037.44 83.3375 1037.46 85.8779L1037.47 85.9407Z" fill="#FBB130"/>
<path d="M992.292 168.041C991.895 170.886 995.073 173.794 997.748 173.068C998.802 172.768 1000.09 172.614 1000.52 172.742C1001.88 173.127 1002.51 170.798 1001.75 168.222C1000.86 165.162 998.668 163.789 995.832 164.498C993.265 165.174 992.626 165.804 992.314 168.023L992.292 168.041Z" fill="#FBB130"/>
</svg>
