<svg width="274" height="104" viewBox="0 0 274 104" fill="none" xmlns="http://www.w3.org/2000/svg">
<path d="M107.755 104C87.4584 104 67.4729 102.722 48.359 98.5226C41.1991 96.9524 34.1015 94.9441 27.8133 92.461C-3.69035 80.0456 -9.23157 59.2316 15.2989 42.2883C31.9846 30.7858 52.0324 21.2552 74.6951 14.025C121.266 -0.836896 170.14 -4.34241 220.882 5.69944C239 9.27799 254.378 15.3396 264.588 25.1259C276.729 36.7744 277.539 48.9342 264.588 60.181C256.619 67.046 246.471 73.4363 235.326 78.585C198.095 95.7839 155.073 103.671 107.817 104H107.755ZM112.549 99.0704C118.589 98.7417 128.612 98.5226 138.387 97.6097C179.977 93.7025 217.271 84.2815 246.907 66.3157C254.253 61.8608 260.791 56.0182 263.717 50.1392C267.203 43.1647 271.686 34.62 255.187 29.9094C254.565 29.7268 254.191 29.2521 253.755 28.9235C239 18.2609 219.388 12.4183 196.6 11.0307C142.247 7.70781 91.6299 14.7554 46.3668 32.9037C35.1599 37.4317 25.1361 43.6029 17.1045 50.1027C3.78085 60.9113 6.08443 73.2902 22.2098 82.7843C28.8716 86.728 37.2768 90.051 45.8687 92.388C65.6051 97.7558 87.0226 98.8513 112.425 99.1069L112.549 99.0704ZM178.607 4.16578C144.613 1.97483 112.487 5.77247 82.1041 14.8284C113.359 8.43813 145.36 4.31184 178.607 4.16578Z" fill="#FBB130"/>
</svg>
