<svg width="185" height="185" viewBox="0 0 185 185" fill="none" xmlns="http://www.w3.org/2000/svg">
<g clip-path="url(#clip0_5405_1326)">
<path d="M6.29861 78.6904C8.60426 79.4438 10.9085 80.3898 13.2634 80.9983C33.2088 86.0031 53.155 90.9115 73.1005 95.9162C75.1672 96.4306 77.231 97.3302 79.0037 98.5209C79.8662 99.0923 80.6232 100.916 80.2793 101.834C79.9833 102.799 78.436 103.677 77.2782 103.975C76.0241 104.273 74.5816 103.995 73.284 103.667C52.4717 98.6687 31.7073 93.7182 11.0413 88.4781C8.68646 87.8695 6.77955 85.2835 4.67291 83.6619L6.29861 78.6904Z" fill="#1BB6F9"/>
<path d="M20.5859 168.164C21.5104 166.947 22.1417 165.241 23.4083 164.561C40.6538 154.933 57.8991 145.208 75.4378 136.069C78.6045 134.367 83.0426 135.105 86.8451 134.721C83.9725 137.399 81.4422 140.71 78.1297 142.655C64.1488 150.874 50.119 158.946 35.796 166.628C31.5576 168.913 26.5856 169.783 21.956 171.287C21.5156 170.262 21.0265 169.287 20.5861 168.262L20.5859 168.164Z" fill="#1BB6F9"/>
<path d="M182.526 32.9033C181.42 35.0613 180.696 37.4102 179.255 39.3295C169.263 52.7637 159.271 66.198 148.944 79.3934C147.455 81.2649 144.436 81.8938 142.086 83.0963C142.33 80.6526 141.714 77.5399 143.011 75.8605C153.339 61.9944 163.954 48.4151 174.617 34.8837C175.962 33.1563 178.311 32.337 180.182 31.0397C180.947 31.7089 181.713 32.2822 182.478 32.9513L182.526 32.9033Z" fill="#1BB6F9"/>
<path d="M92.2803 12.9999C97.2243 35.6895 105.721 55.5939 109.407 78.3903C98.9093 72.7681 85.007 21.4246 92.2803 12.9999Z" fill="#1BB6F9"/>
</g>
<defs>
<clipPath id="clip0_5405_1326">
<rect width="185" height="185" fill="white"/>
</clipPath>
</defs>
</svg>
