<svg width="408" height="137" viewBox="0 0 408 137" fill="none" xmlns="http://www.w3.org/2000/svg">
<path d="M83.6804 81.7941C104.801 75.3807 128.922 73.6392 150.532 78.4874C159.661 80.5347 168.995 84.2391 175.825 90.8492C177.897 90.51 179.97 90.2964 181.984 90.1876C191.378 89.6721 200.983 91.1945 209.895 94.1544C214.818 95.791 219.477 98.2345 224.219 100.316C230.428 103.041 236.736 105.578 243.216 107.596C255.422 111.397 269.795 113.864 281.601 107.512C283.884 106.285 286.104 104.695 288.04 102.828C277.123 99.4105 267.192 91.4586 264.842 79.8253C262.702 69.2285 271.702 59.4433 282.344 59.8343C290.616 60.1379 295.227 68.1162 297.045 75.3088C299.039 83.1967 298.854 92.894 294.483 99.9918C294.229 100.404 293.962 100.805 293.69 101.202C294.385 101.344 295.08 101.474 295.768 101.583C306.754 103.311 319.08 100.42 328.395 94.4543C337.93 88.347 344.008 78.4097 346.603 67.5105C346.865 66.4144 348.574 66.7092 348.334 67.8246C345.714 79.9324 339.061 90.5108 328.599 97.2595C318.042 104.07 304.138 106.447 291.898 103.846C291.818 103.831 291.736 103.808 291.656 103.793C284.852 111.44 274.214 114.783 264.138 114.711C251.053 114.619 238.264 109.921 226.345 104.901C216.856 100.902 208.073 96.382 197.85 94.5777C191.609 93.4728 184.957 92.9927 178.546 93.7983C184.537 101.173 187.387 111.304 184.205 120.507C180.464 131.33 166.664 132.774 158.075 126.953C149.358 121.046 151.983 107.061 157.711 100.015C161.319 95.579 166.531 93.0336 172.051 91.6307C171.784 91.4029 171.517 91.1792 171.246 90.9601C163.709 84.9 153.915 82.1007 144.545 80.5402C125.052 77.2897 103.708 79.0806 84.8338 84.8447C82.8397 85.4548 81.6906 82.404 83.6932 81.7974L83.6804 81.7941ZM293.046 95.797C294.773 91.8037 295.18 87.2276 295.009 82.924C294.714 75.5914 291.952 64.7255 283.538 63.0411C279.49 62.2334 275.089 64.3217 271.977 66.7312C267.54 70.1631 266.9 76.1223 268.284 81.205C271.025 91.2595 280.571 97.5464 290.282 100.356C291.4 98.9464 292.345 97.4194 293.046 95.797ZM168.832 96.1809C159.782 99.7135 153.045 110.181 156.642 120.009C158.91 126.205 167.203 127.777 172.902 126.759C178.489 125.758 181.411 120.622 182.199 115.427C183.376 107.61 180.099 100.059 174.905 94.3941C172.835 94.8296 170.801 95.4091 168.832 96.1809Z" fill="#1BB6F9"/>
<g clip-path="url(#clip0_7010_3111)">
<path d="M339.607 30.0068C338.937 30.2476 338.291 30.5516 337.678 30.9148C337.485 31.011 337.318 31.1524 337.191 31.3271C337.064 31.5017 336.98 31.7046 336.947 31.9186C336.916 32.3099 337.121 32.7016 337.554 33.0822C337.914 33.3782 338.302 33.638 338.712 33.8579C339.027 34.0389 339.348 34.2101 339.668 34.3809C340.127 34.6257 340.602 34.8774 341.044 35.157C347.039 38.9341 352.494 42.2831 358.478 44.989C358.465 45.2046 358.451 45.4195 358.436 45.6336C358.396 46.2387 358.354 46.864 358.353 47.4814C358.352 48.4137 358.348 49.3465 358.342 50.2799C358.327 53.2396 358.311 56.3 358.409 59.3096C358.445 60.3946 358.832 61.1706 359.499 61.4942C360.2 61.8333 361.101 61.6358 362.037 60.9352C362.374 60.6826 362.72 60.3987 363.094 60.0672C364.733 58.6122 366.369 57.1546 368.022 55.6829L369.519 54.3491C369.53 54.3576 369.541 54.366 369.552 54.3751L370.936 55.574C372.512 56.9382 374.142 58.3485 375.733 59.7503C376.186 60.1487 376.642 60.545 377.1 60.939C378.497 62.1466 379.943 63.3955 381.241 64.7337C381.929 65.4419 382.598 65.7748 383.402 65.7748C383.749 65.7699 384.093 65.7185 384.426 65.6221C385.599 65.3008 386.356 64.5795 386.88 63.2857C388.856 58.411 390.878 53.4595 392.833 48.6715C394.438 44.7384 396.042 40.805 397.644 36.8711C401.096 28.4259 404.075 19.7922 406.565 11.0107C406.866 9.99211 407.079 8.94874 407.199 7.89272C407.239 7.64804 407.224 7.39741 407.155 7.15931C407.086 6.92121 406.965 6.70175 406.8 6.51716C406.602 6.33706 406.366 6.2039 406.11 6.12749C405.854 6.05108 405.585 6.03336 405.321 6.07558C404.972 6.11778 404.627 6.19601 404.294 6.30917L404.249 6.32293C403.5 6.54781 402.749 6.76622 401.998 6.98497C400.253 7.49285 398.449 8.01802 396.698 8.61673C384.053 12.9438 371.229 17.6546 358.582 22.6184C354.934 24.0495 351.22 25.4928 347.627 26.888C344.953 27.9253 342.279 28.9649 339.607 30.0068Z" fill="#1BB6F9"/>
</g>
<g clip-path="url(#clip1_7010_3111)">
<path d="M334.669 24.1699C333.998 24.4107 333.353 24.7147 332.739 25.0778C332.547 25.1741 332.38 25.3155 332.252 25.4901C332.125 25.6648 332.042 25.8677 332.009 26.0817C331.978 26.473 332.183 26.8647 332.615 27.2452C332.975 27.5413 333.363 27.8011 333.774 28.0209C334.088 28.202 334.409 28.3732 334.729 28.544C335.188 28.7888 335.663 29.0405 336.105 29.3201C342.1 33.0972 347.556 36.4462 353.539 39.1521C353.526 39.3676 353.512 39.5826 353.497 39.7967C353.457 40.4018 353.415 41.0271 353.414 41.6445C353.413 42.5767 353.409 43.5096 353.403 44.443C353.388 47.4027 353.372 50.4631 353.471 53.4727C353.506 54.5577 353.893 55.3337 354.56 55.6573C355.261 55.9964 356.163 55.7989 357.098 55.0983C357.436 54.8457 357.781 54.5618 358.155 54.2303C359.794 52.7753 361.431 51.3176 363.083 49.846L364.58 48.5122C364.592 48.5206 364.603 48.5291 364.613 48.5382L365.997 49.737C367.574 51.1012 369.203 52.5116 370.794 53.9134C371.247 54.3118 371.703 54.7081 372.161 55.1021C373.558 56.3097 375.004 57.5586 376.303 58.8968C376.991 59.605 377.66 59.9379 378.463 59.9379C378.81 59.933 379.154 59.8816 379.488 59.7852C380.66 59.4639 381.417 58.7426 381.941 57.4487C383.917 52.5741 385.939 47.6226 387.894 42.8346C389.499 38.9015 391.103 34.9681 392.705 31.0342C396.158 22.589 399.136 13.9553 401.626 5.17379C401.928 4.1552 402.14 3.11183 402.26 2.05581C402.3 1.81113 402.285 1.56049 402.216 1.32239C402.147 1.08429 402.026 0.864834 401.862 0.680244C401.663 0.500146 401.428 0.366986 401.172 0.290575C400.916 0.214164 400.646 0.19645 400.382 0.238667C400.033 0.280865 399.689 0.359101 399.355 0.472254L399.31 0.486016C398.561 0.710898 397.81 0.929308 397.059 1.14806C395.314 1.65594 393.51 2.1811 391.76 2.77981C379.115 7.1069 366.29 11.8177 353.643 16.7815C349.995 18.2125 346.281 19.6559 342.689 21.0511C340.014 22.0884 337.34 23.128 334.669 24.1699ZM358.74 37.5096C359.436 36.924 360.096 36.3706 360.773 35.8504C363.428 33.809 366.086 31.7707 368.747 29.7363C373.974 25.7333 379.38 21.594 384.667 17.4836C386.283 16.2277 387.818 14.816 389.302 13.4532C389.811 12.9859 390.32 12.5166 390.834 12.0537C391.243 11.6845 391.928 11.0668 391.548 9.86007C391.536 9.82065 391.516 9.78423 391.489 9.75312C391.462 9.72199 391.429 9.6969 391.391 9.67932C391.354 9.66189 391.314 9.65222 391.273 9.65102C391.232 9.64979 391.191 9.65704 391.153 9.67225C390.994 9.7368 390.841 9.79378 390.693 9.84752C390.386 9.95333 390.087 10.0813 389.797 10.2304C379.986 15.5946 371.451 22.6287 363.197 29.4317C361.33 30.9699 359.571 32.5566 357.71 34.2348C356.92 34.9477 356.122 35.6635 355.315 36.3826L336.906 26.3416C337.012 26.2757 337.123 26.2189 337.239 26.1716C340.2 25.0492 343.159 23.9226 346.118 22.792C353.362 20.0291 360.854 17.172 368.253 14.4541C374.843 12.0335 381.586 9.68861 388.107 7.4208C390.275 6.66692 392.443 5.91155 394.61 5.15475C395.45 4.86095 396.298 4.6311 397.195 4.38811C397.433 4.32386 397.672 4.25876 397.912 4.19275C394.299 15.7216 389.69 27.0297 385.23 37.9716C382.887 43.721 380.465 49.662 378.201 55.5995C372.047 50.6109 366.078 45.3372 360.303 40.2348C359.523 39.5449 358.742 38.8548 357.958 38.1644C358.225 37.941 358.484 37.7231 358.739 37.5096H358.74ZM362.16 46.3039L356.88 50.808L356.462 41.0046L362.16 46.3039Z" fill="#111827"/>
</g>
<path d="M55.2455 99.0496C56.3125 104.902 57.401 110.752 58.4349 116.611C58.8004 118.681 58.9925 120.782 59.3354 122.857C59.8271 125.833 57.8357 128.036 55.1406 128.557C49.618 129.625 44.0947 130.702 38.5466 131.623C32.1179 132.69 25.6656 133.618 19.2153 134.548C17.6886 134.73 16.1531 134.827 14.6156 134.839C12.7492 134.899 10.6103 133.116 10.1729 131.148C9.7528 129.254 9.3501 127.354 8.99828 125.446C7.36062 116.569 5.73458 107.69 4.1202 98.8079C3.16919 93.5909 2.2533 88.3672 1.27882 83.1547C1.00203 81.6769 0.64238 80.2089 1.00311 78.7159C1.18598 77.8502 1.49279 77.0153 1.91406 76.2372C2.44172 75.3357 3.36809 74.8707 4.40765 74.6634C6.55062 74.2361 8.70503 73.853 10.8287 73.3438C18.3231 71.546 25.9691 70.6416 33.5586 69.4009C35.1734 69.1369 36.4887 69.4569 37.8707 70.3829C40.693 72.2738 43.6603 73.9476 46.5559 75.73C47.658 76.4086 48.7047 77.1791 49.8182 77.8373C50.8456 78.4445 51.3558 79.3432 51.5821 80.4638C51.9827 82.4469 52.4179 84.4236 52.7869 86.4129C53.5696 90.6318 54.3193 94.857 55.0822 99.0799L55.2455 99.0496Z" fill="#1BB6F9"/>
<path d="M58.5367 92.786C59.6037 98.6389 60.6921 104.488 61.7259 110.346C62.0915 112.417 62.2833 114.518 62.6265 116.593C63.1188 119.569 61.1316 121.774 58.435 122.296C52.9126 123.364 47.3892 124.441 41.841 125.361C35.4123 126.429 28.9603 127.358 22.5096 128.286C20.9438 128.483 19.3671 128.581 17.789 128.577C15.9791 128.604 13.8874 126.793 13.465 124.89C13.0449 122.996 12.6423 121.097 12.2902 119.189C10.6525 110.311 9.02642 101.432 7.41208 92.5502C6.46105 87.3331 5.54495 82.1095 4.57066 76.8967C4.29391 75.4193 3.93263 73.9513 4.29421 72.4578C4.47703 71.5921 4.78329 70.7573 5.20364 69.9787C5.73076 69.0768 6.65648 68.6107 7.69604 68.4034C9.83897 67.9758 11.9934 67.5929 14.117 67.0835C21.6115 65.2861 29.2574 64.3808 36.8469 63.1406C38.461 62.8767 39.777 63.1934 41.1596 64.1202C43.9815 66.0117 46.9491 67.6848 49.8446 69.4675C50.9469 70.1461 51.9936 70.9164 53.1069 71.5737C54.1341 72.1807 54.6464 73.0777 54.8726 74.1982C55.2731 76.1816 55.7087 78.1596 56.0775 80.1475C56.8602 84.3664 57.6097 88.5921 58.3729 92.8147L58.5367 92.786ZM36.6963 66.2319C35.9821 66.2972 35.3798 66.3203 34.7876 66.4112C29.7479 67.1866 24.7094 67.9698 19.672 68.7605C17.3949 69.1176 15.1205 69.4923 12.8461 69.867C11.6903 70.0573 10.5272 70.2188 9.38602 70.476C7.79435 70.8344 7.37753 71.3834 7.35855 73.0109C7.32551 74.5501 7.51824 76.086 7.93053 77.5694C8.17474 78.4252 8.37249 79.2936 8.52291 80.1708C10.9558 94.2469 13.3826 108.324 15.8035 122.402C15.8438 122.682 15.9024 122.96 15.9788 123.233C16.5306 125.006 17.695 126.054 19.7699 125.783C27.5192 124.769 35.2167 123.455 42.8939 122.008C46.7516 121.281 50.6154 120.586 54.4769 119.88C55.4312 119.706 56.3952 119.577 57.3416 119.369C58.9947 119.004 59.6872 118.027 59.3932 116.399C58.8179 113.216 58.197 110.041 57.5885 106.864C57.2762 105.234 56.9622 103.605 56.6272 101.981C55.8346 98.1373 54.9653 94.3085 54.2469 90.4514C53.4383 86.1158 52.7608 81.7559 52.0222 77.4074C51.9766 77.1406 51.8971 76.8794 51.8317 76.6095C51.6909 76.6012 51.5494 76.6034 51.4088 76.6164C48.9848 77.0815 46.5657 77.574 44.1355 78.0046C43.3795 78.1397 42.6098 78.1818 41.8434 78.1297C40.2795 78.0166 39.7081 77.5174 39.2862 76.0055C38.9059 74.6424 38.5749 73.2655 38.2126 71.8972C37.7262 70.0639 37.2316 68.2318 36.6964 66.2326L36.6963 66.2319ZM49.4549 73.6981L49.4671 73.4372L40.3402 67.6194L40.1785 67.7671C41.0015 70.2465 41.8246 72.726 42.6732 75.2819L49.4549 73.6981Z" fill="black"/>
<path d="M13.1114 81.0853C12.914 79.9313 12.6855 78.7819 12.5269 77.6223C12.3182 76.0932 12.6864 75.5716 14.2006 75.2108C16.3191 74.7061 18.4445 74.2293 20.567 73.7414C21.5219 73.5221 22.3035 73.8763 22.6973 74.8777C23.0741 75.8989 23.3938 76.9401 23.655 77.9968C23.9834 79.1204 24.2506 80.2611 24.4555 81.4137C24.5573 82.2068 24.5527 83.0099 24.4421 83.8018C24.3426 84.6543 23.7389 85.1631 22.9237 85.3282C20.8267 85.7534 18.7304 86.1967 16.6165 86.5187C14.6394 86.8197 14.1911 86.457 13.7193 84.5422C13.5744 83.9545 13.4408 83.3631 13.3225 82.7694C13.2121 82.2154 13.1286 81.656 13.0334 81.0992L13.1114 81.0853ZM16.3327 83.5C17.3049 83.6438 19.6233 83.1606 21.0149 82.5294L19.9835 76.4996C18.6764 76.4352 15.6831 76.9712 14.8401 77.4294L16.3327 83.5Z" fill="black"/>
<path d="M32.157 92.3354C36.9134 91.6202 41.6688 90.896 46.4286 90.2032C46.9469 90.1347 47.4735 90.1627 47.9817 90.2858C48.2228 90.3396 48.4408 90.4679 48.6049 90.6525C48.769 90.8373 48.8708 91.0688 48.896 91.3146C48.9419 91.5578 48.9074 91.809 48.7977 92.0306C48.6878 92.2524 48.5088 92.4323 48.2877 92.5431C47.6692 92.828 47.0156 93.0296 46.3438 93.1423C42.6249 93.6928 38.8935 94.1593 35.1781 94.7307C31.7821 95.2529 28.4021 95.8793 25.0128 96.4457C22.9395 96.7919 20.8642 97.1297 18.784 97.4298C18.2226 97.4841 17.6572 97.4827 17.0961 97.425C16.8905 97.4208 16.6935 97.3417 16.5421 97.2027C16.3906 97.0638 16.2951 96.8742 16.2735 96.6698C16.2206 96.471 16.2409 96.2599 16.3306 96.0746C16.4203 95.8896 16.5734 95.7429 16.7621 95.6609C17.1235 95.4846 17.5056 95.354 17.8993 95.272C22.6564 94.3257 27.4154 93.3875 32.1762 92.4574C32.1696 92.4166 32.1632 92.3761 32.157 92.3354Z" fill="black"/>
<path d="M17.0983 102.403C17.2289 101.467 17.889 101.242 18.57 101.079C20.0257 100.729 21.4784 100.356 22.9492 100.082C30.8291 98.6143 38.7123 97.164 46.599 95.7313C47.1531 95.6214 47.7191 95.5822 48.2831 95.6146C48.582 95.6233 48.8688 95.7328 49.0976 95.9253C49.3261 96.1178 49.4832 96.3819 49.5426 96.6748C49.6024 96.9678 49.5611 97.2722 49.4257 97.5387C49.2905 97.8052 49.0692 98.0181 48.7975 98.1428C48.3313 98.3795 47.8354 98.552 47.3228 98.6552C45.4495 98.9877 43.5692 99.2808 41.6887 99.5711C34.7663 100.636 27.8429 101.694 20.9182 102.745C20.0408 102.877 19.1466 102.912 18.2582 102.956C17.707 102.982 17.7053 102.951 17.0983 102.403Z" fill="black"/>
<path d="M34.0243 89.9201C30.6332 90.5002 27.236 91.0472 23.8538 91.675C22.3047 91.9623 20.7885 92.4171 19.2516 92.7786C18.5038 92.9545 17.7503 93.1221 16.9925 93.2371C16.2599 93.3473 15.7991 93.116 15.6753 92.6703C15.5482 92.208 15.8124 91.7876 16.5355 91.5617C18.5041 90.947 20.4654 90.2853 22.4699 89.8147C29.565 88.149 36.7288 86.8232 43.921 85.651C44.5577 85.5342 45.2021 85.4626 45.8489 85.4371C46.5763 85.4236 47.0175 85.7892 47.1005 86.3403C47.1835 86.8913 46.8778 87.3644 46.1808 87.5693C45.3274 87.8223 44.4608 88.0279 43.5848 88.1855C40.3956 88.7505 37.2013 89.2851 34.0089 89.8313L34.0243 89.9201Z" fill="black"/>
<path d="M46.5289 110.944C45.4529 111.128 44.3797 111.328 43.3008 111.492C42.2997 111.644 41.7485 111.38 41.6322 110.747C41.516 110.114 41.937 109.696 42.9252 109.459C44.8907 108.99 46.8544 108.511 48.8245 108.06C49.3347 107.941 49.8564 107.875 50.3804 107.866C50.627 107.848 50.8717 107.919 51.0706 108.066C51.2697 108.213 51.41 108.425 51.4663 108.666C51.6243 109.23 51.4972 109.753 50.9974 110.052C50.5472 110.318 50.0578 110.51 49.5472 110.622C48.5618 110.839 47.5591 110.977 46.5633 111.147C46.5518 111.08 46.5405 111.012 46.5289 110.944Z" fill="black"/>
<defs>
<clipPath id="clip0_7010_3111">
<rect width="70.4898" height="60.1633" fill="white" transform="translate(336.939 5.83691)"/>
</clipPath>
<clipPath id="clip1_7010_3111">
<rect width="70.4898" height="60.1633" fill="white" transform="translate(332)"/>
</clipPath>
</defs>
</svg>
