<svg width="78" height="78" viewBox="0 0 78 78" fill="none" xmlns="http://www.w3.org/2000/svg">
<g opacity="0.5">
<path d="M49.8779 33.3944C48.9735 33.1527 48.0538 32.9718 47.1251 32.8528C46.7031 32.7893 46.2813 32.7258 45.8623 32.6506L45.845 32.6475H45.8278C39.7181 32.751 34.9554 36.9043 34.2494 42.7506C33.642 47.7678 35.7864 51.568 40.1326 53.1766C42.1245 53.935 44.2365 54.3315 46.3686 54.3478C47.1132 54.3485 47.8569 54.2956 48.594 54.1897C51.4076 53.7855 53.5409 52.4215 54.9349 50.1359C55.7188 48.8681 56.3244 47.4991 56.7354 46.0672C58.2866 40.4373 55.3386 34.989 49.8779 33.3944Z" fill="#D7DADD"/>
<path d="M46.6636 29.1087C45.7592 28.8671 44.8396 28.6862 43.9109 28.5672C43.4888 28.5037 43.0671 28.4402 42.6481 28.3649L42.6308 28.3618H42.6135C36.5038 28.4654 31.7411 32.6187 31.0351 38.4649C30.4278 43.4822 32.5721 47.2823 36.9183 48.891C38.9102 49.6493 41.0222 50.0459 43.1543 50.0621C43.899 50.0628 44.6427 50.01 45.3797 49.904C48.1934 49.4999 50.3266 48.1359 51.7206 45.8503C52.5046 44.5824 53.1102 43.2134 53.5212 41.7816C55.0724 36.1517 52.1244 30.7034 46.6636 29.1087ZM48.8291 44.9125C47.488 46.7135 45.5358 47.5495 42.8645 47.4643C42.4836 47.4076 42.0982 47.3572 41.7142 47.3065C40.8891 47.1978 40.036 47.0856 39.2136 46.9123C35.3539 46.0992 33.8297 43.9785 33.953 39.5925C34.026 36.99 34.999 34.8246 36.7663 33.33C38.7746 31.6318 41.7371 30.8583 44.6924 31.2615C48.1771 31.7368 50.4592 34.3416 50.7979 38.2299C51.008 40.6249 50.3052 43.011 48.8291 44.9125Z" fill="black"/>
</g>
</svg>
