<svg width="32" height="30" viewBox="0 0 32 30" fill="none" xmlns="http://www.w3.org/2000/svg">
<path d="M14.1733 1.26661C13.2984 1.6312 12.4479 1.97149 11.573 2.33608C6.20229 4.66945 2.75143 10.0168 3.11596 15.7773C3.40758 20.4683 5.54614 24.1871 9.79896 26.326C13.9546 28.4407 18.1831 28.0518 21.9742 25.451C26.713 22.194 29.0217 17.4787 28.9731 11.7668C28.9245 7.53756 26.1298 4.74237 21.9256 4.25625C16.3848 3.59999 10.5037 7.7563 9.45873 13.0307C8.85119 16.0689 10.5523 18.6697 13.3956 19.0829C16.1174 19.4475 19.0094 16.8953 18.9121 13.9786C18.8878 13.055 18.0859 12.18 17.6484 11.2807C16.9194 11.8883 16.1903 12.5203 15.437 13.1036C14.8051 13.5897 14.149 14.0029 13.4928 14.4404C13.2498 13.614 12.5451 12.423 12.861 12.0098C13.663 10.9161 14.9509 9.40911 15.9473 9.45772C17.6727 9.55495 19.9814 10.2598 20.8563 11.548C21.7555 12.8363 21.7798 15.3641 21.1479 16.9196C19.9328 19.8364 17.211 21.1489 14.0032 20.9058C10.8439 20.6871 8.48666 19.0829 7.24727 16.1175C5.91067 12.9335 6.83414 9.14174 9.70175 6.56531C14.0032 2.70066 19.0093 1.41245 24.5988 3.11387C30.1153 4.79098 32.6913 9.16605 31.8407 15.0967C30.1882 26.958 17.5755 33.4234 7.51459 27.4927C2.19249 24.3573 -0.505011 19.6176 0.0782329 13.3953C0.685779 6.85698 4.35535 2.48191 10.4308 0.197155C11.5001 -0.216046 12.861 0.148542 14.1004 0.148542C14.1004 0.537437 14.149 0.902029 14.1733 1.29092V1.26661Z" fill="#FC787D"/>
</svg>
